<svg width="320" height="320" viewBox="0 0 320 320" fill="none" xmlns="http://www.w3.org/2000/svg">
<path d="M22.6163 271.293V287.337H26.3219C26.3219 287.337 25.9667 284.143 26.3219 282.25C26.6771 280.356 30.6995 275.48 30.5811 271.293H22.6163Z" fill="#EBEBEB"/>
<path d="M52.2592 271.293V287.337H55.9648C55.9648 287.337 55.6096 284.143 55.9648 282.25C56.3194 280.356 60.3424 275.48 60.224 271.293H52.2592Z" fill="#E0E0E0"/>
<path d="M81.2717 271.293V287.337H77.5661C77.5661 287.337 77.9206 284.143 77.5661 282.25C77.2109 280.356 73.1885 275.48 73.3069 271.293H81.2717Z" fill="#EBEBEB"/>
<path d="M106.931 271.293V287.337H103.226C103.226 287.337 103.581 284.143 103.226 282.25C102.87 280.356 98.848 275.48 98.9664 271.293H106.931Z" fill="#E0E0E0"/>
<path d="M108.874 192.086H20.096V271.811H108.874V192.086Z" fill="#F5F5F5"/>
<path d="M84.9568 192.086L85.6179 271.811H108.874V192.083L84.9568 192.086Z" fill="#E0E0E0"/>
<path d="M81.0893 197.951H24.0909V218.237H81.0893V197.951Z" fill="#EBEBEB"/>
<path d="M81.0893 222.281H24.0909V242.568H81.0893V222.281Z" fill="#EBEBEB"/>
<path d="M81.0893 246.612H24.0909V266.898H81.0893V246.612Z" fill="#EBEBEB"/>
<path d="M45.9405 169.176L43.4816 191.992H74.9818L77.5943 169.176H45.9405Z" fill="#E0E0E0"/>
<path d="M47.2352 170.815L44.8436 190.779H73.2717L75.5719 170.815H47.2352Z" fill="white"/>
<path d="M52.0192 174.173L50.5479 187.421H68.4877L69.408 174.173H52.0192Z" fill="#EBEBEB"/>
<path d="M76.4691 179.002L82.9754 192.083L74.9818 191.992L76.4691 179.002Z" fill="#EBEBEB"/>
<path d="M54.6752 209.154C54.6752 210.305 53.7421 211.239 52.5901 211.239C51.4387 211.239 50.5049 210.306 50.5049 209.154C50.5049 208.002 51.4381 207.069 52.5901 207.069C53.7414 207.069 54.6752 208.003 54.6752 209.154Z" fill="#E0E0E0"/>
<path d="M54.6752 233.726C54.6752 234.877 53.7421 235.811 52.5901 235.811C51.4387 235.811 50.5049 234.878 50.5049 233.726C50.5049 232.575 51.4381 231.641 52.5901 231.641C53.7414 231.641 54.6752 232.575 54.6752 233.726Z" fill="#E0E0E0"/>
<path d="M54.6752 258.298C54.6752 259.449 53.7421 260.383 52.5901 260.383C51.4387 260.383 50.5049 259.45 50.5049 258.298C50.5049 257.146 51.4381 256.212 52.5901 256.212C53.7414 256.212 54.6752 257.146 54.6752 258.298Z" fill="#E0E0E0"/>
<path d="M81.0003 62.4845L30.6611 61.9949L32.0666 127.597L82.3994 127.782L81.0003 62.4845Z" fill="#E0E0E0"/>
<path d="M77.753 65.4106L33.6877 64.2656L34.9619 123.763L79.0144 124.305L77.753 65.4106Z" fill="#FAFAFA"/>
<path d="M70.231 74.2982L40.9946 73.8118L41.8854 115.398L71.0982 114.772L70.231 74.2982Z" fill="#EBEBEB"/>
<path d="M41.8854 115.398L70.6406 93.4079L40.9946 73.8118L41.8854 115.398Z" fill="#F5F5F5"/>
<path d="M297.604 28.2905L253.443 27.8611L254.676 85.4118L298.831 85.5744L297.604 28.2905Z" fill="#E0E0E0"/>
<path d="M294.755 30.8577L256.098 29.8535L257.216 82.0487L295.862 82.5249L294.755 30.8577Z" fill="#FAFAFA"/>
<path d="M288.156 38.6548L262.508 38.2285L263.29 74.7104L288.917 74.1613L288.156 38.6548Z" fill="#EBEBEB"/>
<path d="M263.29 74.7104L288.515 55.4189L262.508 38.2285L263.29 74.7104Z" fill="#F5F5F5"/>
<path d="M248.135 244.672C247.947 245.237 254.535 270.273 254.535 270.273L259.053 269.332L252.841 244.672H248.135Z" fill="#EBEBEB"/>
<path d="M283.148 241.096L274.113 270.273H279.383L288.042 243.166L283.148 241.096Z" fill="#F5F5F5"/>
<path d="M291.431 236.578L281.077 270.273H286.348L296.325 238.648L291.431 236.578Z" fill="#EBEBEB"/>
<path d="M251.335 268.202L256.606 286.462H283.148L288.042 268.202H251.335Z" fill="#E0E0E0"/>
<path d="M265.027 268.202C265.021 268.204 265.002 268.14 264.968 268.015C264.932 267.872 264.886 267.688 264.828 267.457C264.707 266.943 264.536 266.221 264.318 265.3C263.884 263.4 263.263 260.685 262.495 257.326C260.977 250.55 258.879 241.187 256.538 230.735L256.7 230.865C255.957 230.865 255.16 230.865 254.357 230.865C253.568 230.865 252.783 230.865 252.052 230.865L252.214 230.661C254.571 241.123 256.681 250.495 258.208 257.276C258.951 260.644 259.551 263.368 259.972 265.272C260.169 266.199 260.324 266.925 260.434 267.442C260.481 267.676 260.517 267.862 260.546 268.007C260.57 268.135 260.579 268.201 260.573 268.202C260.568 268.203 260.548 268.14 260.514 268.014C260.477 267.871 260.43 267.688 260.371 267.456C260.246 266.943 260.072 266.221 259.85 265.3C259.405 263.401 258.771 260.685 257.985 257.326C256.432 250.552 254.286 241.189 251.89 230.735L251.843 230.531H252.052C252.783 230.531 253.567 230.531 254.356 230.531C255.159 230.531 255.956 230.531 256.7 230.531H256.833L256.862 230.662C259.164 241.123 261.226 250.495 262.718 257.275C263.444 260.643 264.03 263.367 264.44 265.272C264.633 266.198 264.784 266.925 264.891 267.441C264.936 267.676 264.972 267.862 265 268.006C265.023 268.136 265.032 268.202 265.027 268.202Z" fill="#E0E0E0"/>
<path d="M290.963 287.225C290.963 287.318 230.199 287.392 155.26 287.392C80.2957 287.392 19.545 287.318 19.545 287.225C19.545 287.133 80.2957 287.059 155.26 287.059C230.198 287.058 290.963 287.133 290.963 287.225Z" fill="#263238"/>
<path d="M273.491 112.543C273.491 112.543 273.344 112.474 273.037 112.404C272.733 112.333 272.252 112.29 271.65 112.424C271.048 112.556 270.34 112.888 269.632 113.46C268.918 114.029 268.251 114.861 267.584 115.847C266.275 117.854 265.241 120.633 264.038 123.872C262.854 127.118 261.528 130.869 260.428 135.155L260.424 135.17L260.419 135.179C260.225 135.526 259.983 135.839 259.673 136.102C259.364 136.351 258.943 136.557 258.509 136.474C258.078 136.405 257.733 136.124 257.437 135.855C257.139 135.578 256.858 135.283 256.576 134.986C256.014 134.392 255.447 133.786 254.802 133.256C254.164 132.749 253.394 132.256 252.559 132.339C251.748 132.443 250.97 132.993 250.503 133.709C250.035 134.446 249.836 135.345 249.795 136.251C249.686 138.084 250.215 139.929 250.536 141.846C250.893 143.76 251.258 145.72 251.631 147.726C251.818 148.729 252.007 149.743 252.198 150.768C252.293 151.281 252.389 151.796 252.486 152.314C252.602 152.808 252.664 153.448 252.303 153.953C252.127 154.221 251.738 154.325 251.448 154.243C251.154 154.173 250.909 154.006 250.691 153.849C250.261 153.526 249.827 153.202 249.392 152.876C248.524 152.23 247.629 151.603 246.68 151.05C245.733 150.504 244.726 150.009 243.647 149.787C243.111 149.679 242.553 149.66 242.033 149.798C241.512 149.931 241.046 150.244 240.717 150.682C240.053 151.56 239.873 152.744 239.855 153.88C239.837 155.03 239.981 156.193 240.191 157.348C240.621 159.663 241.318 161.963 242.141 164.246C242.33 164.82 242.618 165.367 242.701 166.026C242.741 166.345 242.699 166.73 242.464 167.014C242.409 167.083 242.346 167.147 242.279 167.2C242.197 167.256 242.179 167.302 242.03 167.346C241.775 167.401 241.62 167.293 241.473 167.224C240.904 166.891 240.462 166.459 239.992 166.046C239.537 165.624 239.08 165.2 238.621 164.774C237.704 163.931 236.767 163.093 235.71 162.431C235.183 162.104 234.623 161.818 234.031 161.666C233.444 161.503 232.812 161.552 232.32 161.878C231.825 162.21 231.502 162.761 231.352 163.361C231.194 163.962 231.126 164.596 231.123 165.233C231.114 166.508 231.299 167.796 231.605 169.056C232.186 171.59 233.199 174.039 234.384 176.411C235.57 178.787 236.986 181.078 238.526 183.293C239.253 184.431 240.171 185.445 241.02 186.512C241.883 187.569 242.749 188.631 243.619 189.696L243.649 189.732L243.496 189.673C244.857 189.475 246.213 189.278 247.564 189.081C248.911 188.866 250.275 188.746 251.578 188.389C254.209 187.786 256.799 187.041 259.276 186.081C261.749 185.121 264.147 183.99 266.282 182.504C267.357 181.778 268.36 180.948 269.212 179.999C269.638 179.526 270.014 179.01 270.303 178.459C270.596 177.914 270.728 177.289 270.586 176.71C270.442 176.138 270.008 175.675 269.462 175.401C268.923 175.115 268.316 174.95 267.706 174.837C266.477 174.616 265.221 174.606 263.974 174.614C263.349 174.621 262.725 174.627 262.104 174.634C261.478 174.623 260.86 174.646 260.216 174.51C260.06 174.463 259.873 174.438 259.721 174.225C259.64 174.092 259.659 174.046 259.636 173.949C259.622 173.864 259.619 173.776 259.624 173.687C259.641 173.319 259.869 173.006 260.114 172.797C260.619 172.365 261.199 172.154 261.725 171.856C263.871 170.72 265.933 169.485 267.808 168.061C268.741 167.345 269.629 166.582 270.389 165.718C271.138 164.865 271.801 163.867 271.899 162.769C271.95 162.225 271.813 161.681 271.516 161.232C271.223 160.78 270.797 160.419 270.326 160.14C269.379 159.579 268.3 159.268 267.231 159.037C266.157 158.808 265.073 158.671 263.996 158.566C263.455 158.514 262.917 158.463 262.381 158.412C262.114 158.382 261.82 158.341 261.556 158.193C261.286 158.056 261.074 157.716 261.125 157.4C261.201 156.785 261.678 156.354 262.095 156.066C262.515 155.748 262.933 155.431 263.347 155.116C264.178 154.486 264.999 153.862 265.812 153.245C267.437 152.012 269.025 150.806 270.575 149.63C272.102 148.427 273.734 147.416 274.885 145.986C275.464 145.289 275.919 144.488 276.067 143.629C276.202 142.785 275.996 141.854 275.464 141.233C275.197 140.918 274.809 140.731 274.417 140.608C274.022 140.476 273.601 140.436 273.187 140.406C272.353 140.365 271.526 140.433 270.711 140.494C270.303 140.524 269.897 140.554 269.489 140.558C269.09 140.559 268.646 140.534 268.281 140.294C267.904 140.064 267.733 139.629 267.67 139.237C267.618 138.833 267.649 138.439 267.74 138.052L267.741 138.043L267.749 138.029C269.813 134.124 271.351 130.463 272.655 127.27C273.941 124.069 275.041 121.323 275.437 118.964C275.614 117.79 275.701 116.728 275.564 115.827C275.442 114.927 275.162 114.198 274.819 113.688C274.478 113.174 274.098 112.877 273.828 112.721C273.557 112.562 273.402 112.514 273.402 112.514C273.402 112.514 273.563 112.544 273.842 112.697C274.119 112.847 274.511 113.14 274.865 113.657C275.221 114.17 275.514 114.907 275.645 115.816C275.793 116.728 275.715 117.798 275.544 118.982C275.162 121.361 274.072 124.123 272.802 127.329C271.51 130.532 269.987 134.196 267.926 138.127L267.935 138.104C267.854 138.458 267.825 138.842 267.875 139.208C267.935 139.566 268.084 139.933 268.398 140.121C268.704 140.321 269.094 140.348 269.49 140.346C269.886 140.34 270.289 140.31 270.696 140.279C271.51 140.215 272.345 140.143 273.201 140.183C273.627 140.214 274.063 140.253 274.485 140.392C274.903 140.522 275.331 140.724 275.635 141.078C276.237 141.785 276.438 142.75 276.303 143.667C276.147 144.587 275.667 145.422 275.075 146.141C273.893 147.613 272.243 148.636 270.728 149.837C269.181 151.016 267.596 152.223 265.974 153.458C265.164 154.076 264.344 154.701 263.516 155.332C263.101 155.647 262.685 155.965 262.266 156.283C262.051 156.447 261.847 156.591 261.698 156.784C261.548 156.975 261.423 157.201 261.404 157.424C261.375 157.649 261.493 157.834 261.695 157.949C261.901 158.065 262.151 158.104 262.415 158.133C262.949 158.183 263.485 158.233 264.025 158.283C265.108 158.388 266.202 158.525 267.293 158.755C268.379 158.99 269.48 159.302 270.479 159.889C270.974 160.183 271.437 160.569 271.765 161.072C272.097 161.571 272.253 162.193 272.197 162.792C272.086 164.006 271.382 165.039 270.616 165.917C269.837 166.804 268.936 167.579 267.994 168.304C266.101 169.746 264.028 170.989 261.871 172.133C261.34 172.431 260.753 172.658 260.323 173.033C260.108 173.22 259.95 173.449 259.939 173.707C259.935 173.772 259.937 173.838 259.948 173.905C259.956 173.956 259.974 174.077 259.993 174.066C260.013 174.113 260.157 174.176 260.291 174.204C260.857 174.326 261.491 174.31 262.104 174.317C262.725 174.31 263.347 174.304 263.972 174.297C265.223 174.288 266.497 174.296 267.764 174.522C268.395 174.639 269.029 174.808 269.617 175.119C270.205 175.411 270.732 175.951 270.901 176.634C271.069 177.307 270.906 178.022 270.595 178.605C270.287 179.194 269.895 179.729 269.456 180.216C268.579 181.195 267.559 182.038 266.47 182.776C264.305 184.282 261.887 185.423 259.395 186.391C256.899 187.36 254.303 188.107 251.649 188.716C250.33 189.076 248.97 189.196 247.619 189.411C246.266 189.608 244.908 189.806 243.544 190.004L243.451 190.018L243.391 189.945L243.361 189.908C242.491 188.842 241.624 187.778 240.76 186.72C239.909 185.65 238.993 184.64 238.257 183.489C236.703 181.255 235.285 178.957 234.09 176.562C232.897 174.172 231.875 171.702 231.287 169.132C230.977 167.853 230.789 166.545 230.799 165.231C230.802 164.575 230.871 163.917 231.041 163.274C231.203 162.634 231.563 161.994 232.141 161.611C232.725 161.22 233.478 161.176 234.11 161.355C234.754 161.52 235.336 161.821 235.882 162.159C236.972 162.843 237.919 163.694 238.838 164.541C239.296 164.966 239.752 165.39 240.207 165.812C240.666 166.219 241.124 166.657 241.624 166.947C241.742 167.016 241.891 167.066 241.938 167.046C241.945 167.066 242.039 166.991 242.079 166.957C242.133 166.915 242.179 166.868 242.219 166.818C242.385 166.619 242.422 166.344 242.39 166.061C242.325 165.495 242.042 164.932 241.849 164.354C241.023 162.058 240.324 159.745 239.891 157.405C239.681 156.235 239.535 155.056 239.555 153.875C239.579 152.711 239.751 151.474 240.485 150.499C240.844 150.018 241.377 149.66 241.958 149.514C242.538 149.361 243.141 149.387 243.705 149.501C244.84 149.737 245.864 150.246 246.826 150.802C247.789 151.365 248.691 151.999 249.562 152.65C249.996 152.975 250.426 153.299 250.856 153.622C251.07 153.778 251.281 153.917 251.512 153.972C251.739 154.024 251.951 153.968 252.083 153.784C252.22 153.608 252.278 153.355 252.298 153.114C252.317 152.869 252.264 152.626 252.214 152.361C252.119 151.843 252.024 151.329 251.93 150.816C251.741 149.791 251.554 148.778 251.369 147.776C251 145.771 250.639 143.812 250.286 141.899C249.972 139.99 249.438 138.124 249.553 136.24C249.597 135.309 249.803 134.369 250.305 133.582C250.821 132.811 251.619 132.232 252.539 132.111C253.002 132.052 253.455 132.191 253.853 132.375C254.259 132.556 254.608 132.82 254.945 133.084C255.605 133.63 256.175 134.245 256.735 134.84C257.015 135.137 257.293 135.43 257.583 135.701C257.874 135.969 258.182 136.211 258.542 136.269C258.902 136.342 259.258 136.171 259.544 135.946C259.827 135.709 260.064 135.404 260.241 135.088L260.233 135.111C261.352 130.808 262.692 127.065 263.892 123.819C265.109 120.587 266.162 117.803 267.495 115.79C268.173 114.801 268.853 113.968 269.582 113.399C270.304 112.827 271.028 112.497 271.64 112.372C272.254 112.246 272.741 112.298 273.046 112.379C273.352 112.456 273.491 112.543 273.491 112.543Z" fill="#263238"/>
<path d="M270.134 121.249C270.139 121.251 270.117 121.322 270.069 121.458C270.014 121.61 269.941 121.809 269.848 122.06C269.64 122.606 269.346 123.377 268.97 124.361C268.194 126.376 267.083 129.259 265.714 132.813C262.987 139.977 259.232 149.843 255.084 160.74C250.947 171.656 247.164 181.523 244.361 188.64C242.961 192.199 241.814 195.074 241.006 197.053C240.605 198.027 240.291 198.791 240.069 199.331C239.964 199.577 239.881 199.771 239.818 199.92C239.759 200.052 239.727 200.119 239.722 200.117C239.717 200.115 239.738 200.044 239.786 199.908C239.842 199.756 239.915 199.557 240.007 199.306C240.215 198.76 240.51 197.989 240.885 197.005C241.662 194.99 242.772 192.108 244.142 188.554C246.869 181.389 250.624 171.523 254.773 160.622C258.909 149.71 262.691 139.844 265.495 132.727C266.895 129.168 268.042 126.293 268.851 124.313C269.251 123.339 269.565 122.575 269.787 122.034C269.892 121.789 269.974 121.594 270.038 121.445C270.096 121.313 270.129 121.247 270.134 121.249Z" fill="#263238"/>
<path d="M270.479 143.334C270.5 143.377 269.881 143.728 268.877 144.285C267.78 144.896 266.44 145.642 264.957 146.466C263.425 147.318 262.029 148.077 261 148.592C259.971 149.109 259.309 149.377 259.291 149.338C259.27 149.295 259.893 148.953 260.89 148.385C261.983 147.766 263.318 147.01 264.796 146.175C266.329 145.323 267.735 144.582 268.769 144.077C269.802 143.571 270.459 143.295 270.479 143.334Z" fill="#263238"/>
<path d="M258.771 148.951C258.689 148.992 257.167 146.088 255.372 142.465C253.577 138.84 252.189 135.871 252.271 135.83C252.354 135.789 253.875 138.692 255.67 142.317C257.466 145.94 258.854 148.91 258.771 148.951Z" fill="#263238"/>
<path d="M253.175 165.997C253.144 166.028 252.6 165.546 251.768 164.715C250.938 163.883 249.823 162.702 248.666 161.331C247.505 159.962 246.522 158.668 245.841 157.711C245.16 156.753 244.774 156.136 244.81 156.111C244.849 156.082 245.302 156.65 246.029 157.569C246.757 158.488 247.765 159.754 248.92 161.116C250.072 162.481 251.155 163.682 251.939 164.553C252.725 165.423 253.21 165.963 253.175 165.997Z" fill="#263238"/>
<path d="M264.883 163.248C264.893 163.293 264.247 163.478 263.195 163.742C262.143 164.006 260.685 164.348 259.071 164.705C257.455 165.063 255.99 165.368 254.925 165.573C253.86 165.778 253.197 165.882 253.187 165.837C253.176 165.793 253.822 165.607 254.874 165.343C255.925 165.08 257.383 164.738 258.998 164.38C260.613 164.022 262.079 163.717 263.144 163.512C264.209 163.308 264.873 163.203 264.883 163.248Z" fill="#263238"/>
<path d="M261.854 178.924C261.864 178.969 261.032 179.188 259.679 179.505C258.326 179.821 256.452 180.237 254.378 180.675C252.304 181.114 250.422 181.492 249.057 181.75C247.692 182.008 246.842 182.145 246.833 182.1C246.823 182.056 247.655 181.837 249.008 181.52C250.361 181.203 252.235 180.788 254.309 180.349C256.383 179.911 258.264 179.532 259.629 179.274C260.995 179.016 261.845 178.879 261.854 178.924Z" fill="#263238"/>
<path d="M247.171 181.922C247.153 181.938 246.983 181.782 246.69 181.486C246.396 181.191 245.982 180.752 245.478 180.203C244.475 179.103 243.121 177.55 241.702 175.774C240.28 173.999 239.059 172.34 238.207 171.119C237.78 170.508 237.445 170.008 237.22 169.656C236.996 169.305 236.881 169.104 236.899 169.091C236.918 169.078 237.069 169.253 237.325 169.581C237.624 169.97 237.981 170.436 238.397 170.979C239.296 172.163 240.543 173.795 241.962 175.565C243.377 177.337 244.698 178.909 245.655 180.047C246.614 181.185 247.206 181.89 247.171 181.922Z" fill="#263238"/>
<path d="M240.769 224.794C229.656 215.838 228.045 200.52 229.441 186.944C229.673 184.679 229.588 182.267 230.805 180.348C232.023 178.43 234.637 177.241 236.605 178.337C238.237 179.247 238.838 181.259 239.67 182.946C240.777 185.192 242.525 187.106 244.648 188.4C246.042 189.25 247.8 189.831 249.282 189.142C251.315 188.195 251.732 185.504 251.873 183.244C252.135 179.032 252.398 174.82 252.66 170.608C252.801 168.349 252.952 166.041 253.802 163.946C254.651 161.85 256.34 159.965 258.531 159.51C260.721 159.056 263.293 160.477 263.596 162.719C263.722 163.652 263.468 164.594 263.467 165.536C263.465 166.479 263.831 167.546 264.703 167.869C265.587 168.196 266.535 167.617 267.255 167.002C269.743 164.881 271.527 162.052 273.206 159.231C274.885 156.411 276.525 153.517 278.812 151.175C281.098 148.832 284.159 147.062 287.407 147.1C290.655 147.139 293.965 149.372 294.564 152.604C295.166 155.845 293.086 158.949 290.888 161.388C287.626 165.007 283.845 168.146 279.702 170.676C278.956 171.132 278.147 171.625 277.817 172.443C277.223 173.916 278.547 175.51 280 176.107C281.645 176.783 283.484 176.733 285.231 177.062C286.979 177.39 288.833 178.297 289.386 180.008C290.152 182.381 288.056 184.668 286.047 186.123C282.024 189.036 277.508 191.245 272.756 192.625C271.053 193.119 269.268 193.533 267.848 194.608C266.428 195.684 265.48 197.659 266.18 199.305C266.881 200.953 268.924 201.605 270.687 201.401C272.449 201.199 274.072 200.36 275.773 199.848C278.958 198.889 282.952 199.378 284.757 202.198C285.943 204.051 285.89 206.514 285.084 208.571C284.28 210.628 282.815 212.347 281.277 213.919C275.901 219.415 269.209 223.678 261.836 225.681C254.465 227.684 247.746 227.902 240.769 224.794Z" fill="#53C0A3"/>
<g opacity="0.1">
<path d="M240.769 224.794C229.656 215.838 228.045 200.52 229.441 186.944C229.673 184.679 229.588 182.267 230.805 180.348C232.023 178.43 234.637 177.241 236.605 178.337C238.237 179.247 238.838 181.259 239.67 182.946C240.777 185.192 242.525 187.106 244.648 188.4C246.042 189.25 247.8 189.831 249.282 189.142C251.315 188.195 251.732 185.504 251.873 183.244C252.135 179.032 252.398 174.82 252.66 170.608C252.801 168.349 252.952 166.041 253.802 163.946C254.651 161.85 256.34 159.965 258.531 159.51C260.721 159.056 263.293 160.477 263.596 162.719C263.722 163.652 263.468 164.594 263.467 165.536C263.465 166.479 263.831 167.546 264.703 167.869C265.587 168.196 266.535 167.617 267.255 167.002C269.743 164.881 271.527 162.052 273.206 159.231C274.885 156.411 276.525 153.517 278.812 151.175C281.098 148.832 284.159 147.062 287.407 147.1C290.655 147.139 293.965 149.372 294.564 152.604C295.166 155.845 293.086 158.949 290.888 161.388C287.626 165.007 283.845 168.146 279.702 170.676C278.956 171.132 278.147 171.625 277.817 172.443C277.223 173.916 278.547 175.51 280 176.107C281.645 176.783 283.484 176.733 285.231 177.062C286.979 177.39 288.833 178.297 289.386 180.008C290.152 182.381 288.056 184.668 286.047 186.123C282.024 189.036 277.508 191.245 272.756 192.625C271.053 193.119 269.268 193.533 267.848 194.608C266.428 195.684 265.48 197.659 266.18 199.305C266.881 200.953 268.924 201.605 270.687 201.401C272.449 201.199 274.072 200.36 275.773 199.848C278.958 198.889 282.952 199.378 284.757 202.198C285.943 204.051 285.89 206.514 285.084 208.571C284.28 210.628 282.815 212.347 281.277 213.919C275.901 219.415 269.209 223.678 261.836 225.681C254.465 227.684 247.746 227.902 240.769 224.794Z" fill="black"/>
</g>
<path d="M239.898 234.87C240.761 229.513 242.38 223.229 244.867 216.505C247.34 209.775 250.664 202.624 254.397 195.263C255.337 193.427 256.266 191.612 257.181 189.824C258.099 188.041 259.009 186.272 260.006 184.598C261.986 181.239 264.145 178.16 266.287 175.303C268.428 172.443 270.563 169.807 272.578 167.357C274.599 164.911 276.526 162.665 278.369 160.694C282.045 156.736 285.382 153.901 287.751 152.048C288.934 151.118 289.876 150.426 290.52 149.966C290.83 149.748 291.073 149.576 291.256 149.447C291.423 149.332 291.511 149.277 291.516 149.282C291.52 149.288 291.441 149.356 291.282 149.482C291.105 149.619 290.869 149.802 290.57 150.034C289.942 150.516 289.018 151.229 287.851 152.177C285.516 154.067 282.221 156.927 278.584 160.898C276.759 162.876 274.85 165.127 272.844 167.58C270.842 170.038 268.719 172.678 266.591 175.536C264.464 178.394 262.32 181.465 260.356 184.809C259.366 186.476 258.467 188.23 257.548 190.018C256.633 191.805 255.706 193.62 254.767 195.455C251.037 202.81 247.712 209.94 245.225 216.641C242.727 223.336 241.085 229.588 240.189 234.919" fill="#263238"/>
<path d="M260.125 184.589C260.097 184.592 260.044 184.244 259.971 183.611C259.894 182.978 259.815 182.06 259.734 180.924C259.569 178.653 259.448 175.509 259.327 172.042C259.207 168.573 259.042 165.44 258.843 163.177C258.746 162.046 258.659 161.131 258.591 160.5C258.526 159.867 258.503 159.515 258.532 159.51C258.56 159.506 258.637 159.849 258.751 160.477C258.868 161.103 259.001 162.015 259.135 163.147C259.411 165.409 259.623 168.554 259.743 172.026C259.853 175.447 259.952 178.542 260.028 180.907C260.068 181.976 260.104 182.876 260.132 183.599C260.155 184.233 260.154 184.587 260.125 184.589Z" fill="#263238"/>
<path d="M289.541 181.154C289.54 181.182 289.123 181.202 288.373 181.213C287.623 181.229 286.538 181.245 285.199 181.308C282.519 181.412 278.822 181.687 274.757 182.167C270.691 182.656 267.031 183.254 264.396 183.764C263.076 184.009 262.013 184.236 261.278 184.389C260.543 184.544 260.133 184.617 260.125 184.589C260.118 184.56 260.516 184.434 261.24 184.229C261.966 184.027 263.021 183.755 264.338 183.471C266.965 182.885 270.631 182.238 274.709 181.748C278.787 181.266 282.5 181.038 285.191 181.01C286.536 180.985 287.625 181.013 288.376 181.049C289.127 181.089 289.542 181.124 289.541 181.154Z" fill="#263238"/>
<path d="M245.26 215.995C245.247 216 245.187 215.873 245.085 215.627C244.97 215.334 244.831 214.975 244.661 214.542C244.297 213.599 243.805 212.219 243.219 210.507C242.046 207.084 240.575 202.304 239.022 197.008C237.468 191.71 236.044 186.923 234.944 183.481C234.405 181.807 233.96 180.43 233.629 179.407C233.489 178.962 233.373 178.596 233.278 178.296C233.202 178.041 233.169 177.904 233.182 177.898C233.196 177.894 233.255 178.02 233.357 178.267C233.471 178.56 233.612 178.917 233.781 179.351C234.146 180.294 234.637 181.674 235.223 183.385C236.396 186.809 237.868 191.588 239.42 196.887C240.973 202.183 242.398 206.97 243.498 210.413C244.038 212.086 244.482 213.464 244.812 214.487C244.953 214.931 245.069 215.298 245.164 215.598C245.24 215.854 245.274 215.99 245.26 215.995Z" fill="#263238"/>
<path d="M284.707 206.204C284.71 206.218 284.574 206.263 284.314 206.336C284.005 206.417 283.626 206.515 283.167 206.635C282.108 206.9 280.68 207.257 278.942 207.691C275.375 208.584 270.463 209.872 265.036 211.304C259.608 212.737 254.679 213.981 251.092 214.799C249.299 215.21 247.845 215.526 246.836 215.725C246.369 215.814 245.985 215.887 245.672 215.947C245.405 215.993 245.263 216.01 245.26 215.995C245.258 215.981 245.393 215.937 245.654 215.863C245.962 215.783 246.34 215.684 246.801 215.565C247.859 215.3 249.287 214.943 251.025 214.509C254.592 213.617 259.505 212.328 264.933 210.895C270.36 209.463 275.288 208.218 278.875 207.4C280.668 206.989 282.122 206.673 283.132 206.474C283.599 206.385 283.983 206.312 284.296 206.252C284.563 206.207 284.704 206.19 284.707 206.204Z" fill="#263238"/>
<path d="M243.354 48.1221H88.1491V260.796H243.354V48.1221Z" fill="#455A64"/>
<path d="M237.219 248.147H208.473H101.073V56.7173H237.219V224.332V248.147Z" fill="#E0E0E0"/>
<path d="M235.068 244.596H206.582H100.148V54.186H235.068V220.907V244.596Z" fill="#EBEBEB"/>
<path d="M220.57 229.778L205.03 242.431H97.6294V54.6694H233.776V219.073L220.57 229.778Z" fill="#FAFAFA"/>
<path d="M220.57 229.778C220.57 229.778 220.845 229.543 221.4 229.087C221.958 228.631 222.788 227.952 223.889 227.052C226.1 225.252 229.396 222.57 233.742 219.032L233.722 219.073C233.706 192.067 233.67 132.06 233.625 54.6694L233.775 54.8198C193.233 54.8243 147.298 54.8301 98.8179 54.8358C98.4179 54.8358 98.0173 54.8358 97.6294 54.8358L97.7958 54.6694C97.7837 125.258 97.7721 190.378 97.7625 242.431L97.6288 242.298C146.655 242.333 184.316 242.36 205.029 242.375L204.993 242.388C210.176 238.184 214.066 235.028 216.663 232.921C217.961 231.873 218.935 231.085 219.587 230.559C220.24 230.034 220.57 229.778 220.57 229.778C220.57 229.778 220.252 230.049 219.608 230.581C218.959 231.114 217.991 231.908 216.701 232.966C214.112 235.083 210.234 238.253 205.066 242.476L205.051 242.489H205.03C184.317 242.504 146.656 242.531 97.6301 242.566H97.4963V242.432C97.4873 190.379 97.4758 125.259 97.463 54.6701V54.5037H97.6294C98.0179 54.5037 98.4179 54.5037 98.8179 54.5037C147.299 54.5094 193.234 54.5152 233.775 54.5197H233.926V54.6701C233.88 132.061 233.845 192.068 233.829 219.073V219.099L233.809 219.115C229.448 222.636 226.143 225.304 223.924 227.096C222.815 227.987 221.979 228.659 221.418 229.11C220.857 229.557 220.57 229.778 220.57 229.778Z" fill="#263238"/>
<path d="M193.321 60.7653H137.6V51.1083C137.6 45.8923 141.828 41.6638 147.044 41.6638H184.262C189.265 41.6638 193.32 45.7195 193.32 50.7224V60.7653H193.321Z" fill="#FF933B"/>
<path d="M151.247 41.6639L149.211 31.3599H181.293L179.511 41.6639H151.247Z" fill="#FF933B"/>
<path d="M134.806 107.52H111.869V84.583H134.806V107.52ZM112.509 106.88H134.166V85.223H112.509V106.88Z" fill="#AF57A3"/>
<path d="M215.857 90.1222C215.857 90.2144 199.891 90.2886 180.202 90.2886C160.504 90.2886 144.542 90.2137 144.542 90.1222C144.542 90.0301 160.504 89.9558 180.202 89.9558C199.892 89.9552 215.857 90.0301 215.857 90.1222Z" fill="#263238"/>
<path d="M215.857 94.8883C215.857 94.9805 199.891 95.0547 180.202 95.0547C160.504 95.0547 144.542 94.9798 144.542 94.8883C144.542 94.7962 160.504 94.7219 180.202 94.7219C199.892 94.7219 215.857 94.7962 215.857 94.8883Z" fill="#263238"/>
<path d="M215.857 99.6544C215.857 99.7466 199.891 99.8208 180.202 99.8208C160.504 99.8208 144.542 99.746 144.542 99.6544C144.542 99.5623 160.504 99.488 180.202 99.488C199.892 99.488 215.857 99.5623 215.857 99.6544Z" fill="#263238"/>
<path d="M215.857 104.421C215.857 104.513 199.891 104.587 180.202 104.587C160.504 104.587 144.542 104.512 144.542 104.421C144.542 104.329 160.504 104.254 180.202 104.254C199.892 104.254 215.857 104.329 215.857 104.421Z" fill="#263238"/>
<path d="M134.806 142.869H111.869V119.933H134.806V142.869ZM112.509 142.229H134.166V120.573H112.509V142.229Z" fill="#AF57A3"/>
<path d="M116.431 131.872L119.476 128.602L124.55 132.662L136.166 121.385L138.949 124.664L124.325 139.09L116.431 131.872Z" fill="#AF57A3"/>
<path d="M215.857 125.471C215.857 125.563 199.891 125.637 180.202 125.637C160.504 125.637 144.542 125.563 144.542 125.471C144.542 125.38 160.504 125.305 180.202 125.305C199.892 125.304 215.857 125.379 215.857 125.471Z" fill="#263238"/>
<path d="M215.857 130.237C215.857 130.329 199.891 130.404 180.202 130.404C160.504 130.404 144.542 130.329 144.542 130.237C144.542 130.146 160.504 130.071 180.202 130.071C199.892 130.071 215.857 130.145 215.857 130.237Z" fill="#263238"/>
<path d="M215.857 135.003C215.857 135.095 199.891 135.17 180.202 135.17C160.504 135.17 144.542 135.095 144.542 135.003C144.542 134.912 160.504 134.837 180.202 134.837C199.892 134.837 215.857 134.912 215.857 135.003Z" fill="#263238"/>
<path d="M215.857 139.77C215.857 139.862 199.891 139.937 180.202 139.937C160.504 139.937 144.542 139.862 144.542 139.77C144.542 139.678 160.504 139.604 180.202 139.604C199.892 139.603 215.857 139.678 215.857 139.77Z" fill="#263238"/>
<path d="M134.806 177.076H111.869V154.139H134.806V177.076ZM112.509 176.436H134.166V154.779H112.509V176.436Z" fill="#AF57A3"/>
<path d="M116.431 166.079L119.476 162.809L124.55 166.869L136.166 155.592L138.949 158.871L124.325 173.297L116.431 166.079Z" fill="#AF57A3"/>
<path d="M215.857 159.678C215.857 159.77 199.891 159.844 180.202 159.844C160.504 159.844 144.542 159.769 144.542 159.678C144.542 159.586 160.504 159.511 180.202 159.511C199.892 159.511 215.857 159.586 215.857 159.678Z" fill="#263238"/>
<path d="M215.857 164.444C215.857 164.536 199.891 164.61 180.202 164.61C160.504 164.61 144.542 164.536 144.542 164.444C144.542 164.352 160.504 164.278 180.202 164.278C199.892 164.278 215.857 164.352 215.857 164.444Z" fill="#263238"/>
<path d="M215.857 169.211C215.857 169.303 199.891 169.377 180.202 169.377C160.504 169.377 144.542 169.302 144.542 169.211C144.542 169.118 160.504 169.044 180.202 169.044C199.892 169.044 215.857 169.118 215.857 169.211Z" fill="#263238"/>
<path d="M215.857 173.977C215.857 174.069 199.891 174.143 180.202 174.143C160.504 174.143 144.542 174.068 144.542 173.977C144.542 173.885 160.504 173.81 180.202 173.81C199.892 173.81 215.857 173.885 215.857 173.977Z" fill="#263238"/>
<path d="M134.806 210.103H111.869V187.166H134.806V210.103ZM112.509 209.463H134.166V187.806H112.509V209.463Z" fill="#AF57A3"/>
<path d="M116.431 199.107L119.476 195.837L124.55 199.896L136.166 188.619L138.949 191.899L124.325 206.324L116.431 199.107Z" fill="#AF57A3"/>
<path d="M215.857 192.706C215.857 192.798 199.891 192.872 180.202 192.872C160.504 192.872 144.542 192.797 144.542 192.706C144.542 192.614 160.504 192.54 180.202 192.54C199.892 192.539 215.857 192.614 215.857 192.706Z" fill="#263238"/>
<path d="M215.857 197.472C215.857 197.564 199.891 197.638 180.202 197.638C160.504 197.638 144.542 197.564 144.542 197.472C144.542 197.381 160.504 197.306 180.202 197.306C199.892 197.305 215.857 197.38 215.857 197.472Z" fill="#263238"/>
<path d="M215.857 202.238C215.857 202.33 199.891 202.404 180.202 202.404C160.504 202.404 144.542 202.329 144.542 202.238C144.542 202.146 160.504 202.072 180.202 202.072C199.892 202.072 215.857 202.146 215.857 202.238Z" fill="#263238"/>
<path d="M215.857 207.004C215.857 207.096 199.891 207.17 180.202 207.17C160.504 207.17 144.542 207.096 144.542 207.004C144.542 206.913 160.504 206.838 180.202 206.838C199.892 206.838 215.857 206.913 215.857 207.004Z" fill="#263238"/>
<path d="M209.299 211.344L194.373 242.257H205.03L209.299 211.344Z" fill="#E0E0E0"/>
<path d="M205.03 242.431L209.299 211.519L233.776 219.073L205.03 242.431Z" fill="#FAFAFA"/>
<path d="M205.03 242.431C205.631 241.937 208.274 239.762 213.261 235.656C218.376 231.469 225.514 225.626 233.674 218.946L233.728 219.228C230.692 218.292 227.525 217.316 224.278 216.316C218.98 214.677 213.898 213.105 209.254 211.668L209.455 211.54C208.176 220.519 207.08 228.211 206.301 233.678C205.529 238.995 205.131 241.738 205.03 242.431C205.028 242.435 205.033 242.389 205.044 242.294C205.059 242.184 205.076 242.044 205.098 241.867C205.151 241.466 205.224 240.904 205.318 240.184C205.517 238.682 205.802 236.523 206.159 233.812C206.897 228.301 207.933 220.548 209.144 211.498L209.169 211.315L209.346 211.37C213.992 212.801 219.076 214.366 224.376 215.998C227.623 217.002 230.788 217.98 233.824 218.918L234.116 219.008L233.878 219.2C225.62 225.861 218.396 231.689 213.219 235.864C210.663 237.919 208.613 239.565 207.187 240.712C206.497 241.265 205.958 241.697 205.578 242.003C205.406 242.139 205.27 242.247 205.165 242.33C205.073 242.401 205.028 242.436 205.03 242.431Z" fill="#263238"/>
<g opacity="0.3">
<path d="M179.368 31.2434L177.599 41.5474H179.802L181.584 31.2434H178.778" fill="black"/>
</g>
<path d="M85.3939 139.919C88.6503 140.169 91.4612 137.662 91.5872 134.399C91.7076 131.265 91.8131 128.097 91.8131 128.097C91.8131 128.097 96.562 127.652 96.9063 122.952C97.2506 118.252 97.0931 107.402 97.0931 107.402C91.7907 104.73 85.4586 105.137 80.5421 108.466L80.8352 125.007V133.905C80.866 136.891 82.4173 139.69 85.3939 139.919Z" fill="#FFBE9D"/>
<path d="M92.2215 117.214C91.4106 116.209 90.0922 115.809 89.01 116.513C87.9271 117.216 87.5111 118.78 88.0999 119.928C88.5153 120.739 89.4618 121.474 90.4058 121.672C91.2935 121.858 91.9226 122.714 91.8189 123.615C91.6839 124.795 91.0548 125.912 90.169 126.888C88.7918 128.407 86.7649 129.225 84.729 129.466C82.7271 129.702 80.434 129.285 79.2698 127.64C78.4225 126.443 78.361 124.878 78.3309 123.412C78.2593 119.946 78.1876 116.481 78.1159 113.016C78.0903 111.767 78.066 110.502 78.3527 109.286C78.6394 108.07 79.2762 106.888 80.3201 106.202C81.4631 105.449 82.9114 105.385 84.2138 104.964C85.8413 104.438 87.2238 103.357 88.747 102.579C90.2702 101.8 92.137 101.334 93.666 102.101C94.7636 102.652 95.4989 103.747 96.5665 104.355C98.0858 105.219 100.154 105.023 100.892 107.257C101.147 108.029 101.128 108.877 100.867 109.647C99.8362 112.687 96.0705 113.913 93.3581 112.599C93.3044 113.114 93.8119 114.261 93.2698 115.887C93.0957 116.406 93.0343 117.199 92.2215 117.214Z" fill="#263238"/>
<path d="M79.2519 107.539C79.9187 106.02 80.594 104.469 80.7616 102.818C80.9293 101.167 80.5101 99.369 79.2807 98.2554C78.4487 97.5022 77.305 97.1265 76.1824 97.1597C74.034 97.2225 72.0455 98.834 71.4592 100.902C70.8736 102.97 71.6819 105.338 73.3587 106.683C75.0355 108.028 77.4688 108.315 79.4477 107.477" fill="#263238"/>
<path d="M80.1754 105.825C80.2644 105.823 80.1882 106.662 79.4823 107.343C78.7834 108.033 77.9437 108.089 77.9482 108.001C77.9258 107.905 78.6369 107.717 79.25 107.105C79.8759 106.507 80.0807 105.8 80.1754 105.825Z" fill="#E8505B"/>
<path d="M78.6292 106.973C78.6478 107 78.2138 107.421 77.353 107.907C76.921 108.136 76.3502 108.373 75.6711 108.383C75.0145 108.397 74.1953 108.175 73.7095 107.503C73.2295 106.837 73.2116 106.019 73.362 105.377C73.5188 104.717 73.8561 104.211 74.1524 103.821C74.7713 103.055 75.2391 102.677 75.2647 102.7C75.3082 102.737 74.8948 103.183 74.3431 103.96C74.0807 104.352 73.785 104.848 73.6622 105.444C73.5399 106.032 73.5777 106.755 73.979 107.306C74.3764 107.861 75.074 108.071 75.6711 108.076C76.2804 108.084 76.8193 107.891 77.2487 107.695C78.1044 107.282 78.5978 106.924 78.6292 106.973Z" fill="#263238"/>
<path d="M70.6407 112.282C70.6637 112.275 70.7393 112.464 70.8698 112.803C71.0049 113.137 71.1834 113.64 71.5623 114.143C71.9284 114.625 72.6068 115.144 73.4029 114.989C74.1914 114.838 74.8897 114.112 75.1738 113.206C75.4791 112.292 75.5009 111.336 75.6545 110.476C75.7959 109.615 76.0839 108.83 76.5517 108.322C77.0081 107.813 77.5476 107.588 77.9201 107.542C78.2983 107.49 78.5005 107.578 78.4954 107.59C78.4929 107.623 78.2874 107.581 77.9444 107.669C77.6058 107.75 77.1284 107.988 76.7303 108.476C76.3277 108.955 76.0781 109.688 75.9572 110.525C75.8221 111.36 75.8145 112.329 75.4887 113.313C75.1802 114.294 74.3956 115.132 73.4561 115.291C72.9908 115.375 72.5293 115.253 72.1818 115.045C71.8298 114.836 71.5668 114.559 71.3716 114.282C70.9882 113.72 70.8455 113.194 70.7457 112.844C70.6529 112.488 70.6196 112.289 70.6407 112.282Z" fill="#263238"/>
<path d="M68.3309 151.766C68.3309 151.766 65.9354 169.315 68.3309 171.539C70.7264 173.764 73.0324 173.025 73.0324 173.025L77.5936 169.211L78.4915 151.766H68.3309Z" fill="#FFBE9D"/>
<path d="M117.903 102.502L120.948 99.2313L126.022 103.292L137.638 92.0134L140.421 95.2934L125.797 109.72L117.903 102.502Z" fill="#AF57A3"/>
<path d="M132.211 103.393L127.795 106.226C127.596 104.481 126.263 102.751 126.332 103.627C126.4 104.504 126.34 109.053 126.34 109.053L118.465 125.624C117.394 128.25 115.226 129.899 113.606 130.289L106.255 132.475L109.128 142.193L119.345 138.806C121.996 137.927 124.074 135.843 124.945 133.19L131.988 111.734C131.988 111.734 132.824 109.295 133.126 107.507C133.427 105.72 132.211 103.393 132.211 103.393Z" fill="#FFBE9D"/>
<path d="M96.0295 284.624L95.9194 279.711L86.7143 279.858L86.7988 287.048L87.3703 287.076C89.9124 287.176 100.305 287.407 101.994 286.865C103.879 286.26 96.0295 284.624 96.0295 284.624Z" fill="#E8505B"/>
<g opacity="0.5">
<path d="M90.1351 286.922C89.9917 286.155 89.5527 285.448 88.9293 284.978C88.306 284.509 87.5437 284.269 86.7668 284.344L86.8058 286.916L90.1351 286.922Z" fill="white"/>
</g>
<g opacity="0.4">
<path d="M99.8669 285.56C99.8669 285.56 102.621 286.306 102.286 286.763C101.951 287.22 91.4413 287.382 86.7988 287.048L86.8103 286.841L99.0714 286.758C99.0714 286.758 99.3313 285.59 99.8669 285.56Z" fill="white"/>
</g>
<path d="M86.6656 286.838C86.6656 286.842 86.7201 286.847 86.8244 286.853C86.9607 286.859 87.1104 286.866 87.2794 286.873C87.7344 286.886 88.2938 286.902 88.9537 286.92C90.3674 286.948 92.3213 286.963 94.4794 286.932C96.6375 286.9 98.5908 286.829 100.003 286.758C100.662 286.721 101.221 286.689 101.676 286.663C101.844 286.65 101.994 286.639 102.13 286.629C102.234 286.62 102.288 286.614 102.288 286.61C102.288 286.606 102.233 286.605 102.129 286.607C101.992 286.61 101.843 286.615 101.674 286.619C101.219 286.635 100.66 286.656 100.001 286.679C98.5882 286.729 96.6356 286.788 94.4788 286.82C92.3226 286.851 90.3693 286.849 88.9556 286.84C88.2957 286.836 87.7364 286.833 87.2813 286.829C87.1124 286.829 86.9626 286.83 86.8256 286.83C86.7207 286.832 86.6656 286.834 86.6656 286.838Z" fill="#263238"/>
<path d="M99.0708 286.9C99.1047 286.904 99.1252 286.504 99.371 286.097C99.6103 285.686 99.9508 285.476 99.9316 285.448C99.9246 285.421 99.5329 285.6 99.275 286.041C99.0126 286.478 99.0433 286.907 99.0708 286.9Z" fill="#263238"/>
<path d="M96.3335 285.564C96.3597 285.58 96.4871 285.42 96.6183 285.206C96.7495 284.993 96.834 284.806 96.8077 284.79C96.7815 284.774 96.6541 284.934 96.5229 285.148C96.3924 285.362 96.3072 285.548 96.3335 285.564Z" fill="#263238"/>
<path d="M95.5821 285.182C95.6032 285.204 95.7472 285.105 95.9034 284.961C96.0596 284.816 96.1696 284.68 96.1485 284.657C96.1274 284.635 95.984 284.734 95.8272 284.879C95.6711 285.023 95.5616 285.159 95.5821 285.182Z" fill="#263238"/>
<path d="M95.0977 284.32C95.0977 284.351 95.3133 284.375 95.5789 284.373C95.8445 284.372 96.0596 284.347 96.0596 284.316C96.0596 284.285 95.8439 284.261 95.5783 284.262C95.3127 284.264 95.0977 284.289 95.0977 284.32Z" fill="#263238"/>
<path d="M94.9268 283.71C94.9165 283.738 95.1527 283.84 95.465 283.857C95.7773 283.877 96.0237 283.804 96.0173 283.775C96.0116 283.743 95.7684 283.765 95.4721 283.746C95.1751 283.73 94.9357 283.679 94.9268 283.71Z" fill="#263238"/>
<path d="M96.6337 284.757C96.633 284.769 96.8609 284.793 97.225 284.744C97.4068 284.719 97.6218 284.673 97.8529 284.595C97.9674 284.552 98.0877 284.52 98.2113 284.441C98.2689 284.401 98.3335 284.345 98.3546 284.255C98.3777 284.166 98.329 284.067 98.2612 284.02C97.6909 283.736 97.1297 284.062 96.9249 284.358C96.8116 284.509 96.761 284.655 96.738 284.755C96.7156 284.857 96.7188 284.915 96.7252 284.915C96.7463 284.923 96.7617 284.682 96.9869 284.406C97.0983 284.271 97.2673 284.14 97.4874 284.07C97.6954 284.005 97.9924 283.984 98.1933 284.108C98.2881 284.175 98.2535 284.287 98.1498 284.351C98.0532 284.415 97.9284 284.455 97.8196 284.498C97.5969 284.579 97.3895 284.632 97.2129 284.666C96.8589 284.734 96.633 284.739 96.6337 284.757Z" fill="#263238"/>
<path d="M96.7873 284.783C96.7956 284.79 96.8807 284.637 96.8494 284.372C96.8327 284.241 96.7828 284.088 96.681 283.942C96.5748 283.812 96.4372 283.634 96.1838 283.649C96.0468 283.668 95.9822 283.825 96.0058 283.924C96.018 284.028 96.066 284.116 96.1102 284.187C96.2004 284.334 96.3015 284.452 96.395 284.541C96.5831 284.719 96.731 284.786 96.7374 284.775C96.7476 284.76 96.6177 284.671 96.4519 284.486C96.3694 284.394 96.2798 284.276 96.1991 284.134C96.1159 284.011 96.057 283.787 96.2049 283.757C96.3527 283.741 96.5063 283.886 96.5985 284.002C96.6932 284.129 96.747 284.266 96.7719 284.385C96.8206 284.625 96.7674 284.779 96.7873 284.783Z" fill="#263238"/>
<path d="M86.8148 284.317C86.8173 284.337 87.0778 284.287 87.4951 284.33C87.9079 284.37 88.4839 284.53 88.9882 284.919C89.4925 285.309 89.7927 285.826 89.9354 286.215C90.082 286.607 90.0999 286.872 90.1204 286.87C90.1274 286.869 90.1293 286.803 90.1178 286.684C90.1063 286.565 90.0756 286.394 90.0097 286.189C89.8829 285.783 89.5815 285.238 89.0561 284.831C88.53 284.426 87.9265 284.272 87.5009 284.252C87.2865 284.241 87.113 284.254 86.9946 284.273C86.8769 284.291 86.8135 284.31 86.8148 284.317Z" fill="#263238"/>
<path d="M87.7102 280.471C87.6794 280.471 87.6564 281.318 87.6596 282.363C87.6622 283.408 87.6897 284.255 87.7204 284.255C87.7511 284.255 87.7742 283.407 87.771 282.362C87.7678 281.318 87.7409 280.471 87.7102 280.471Z" fill="#263238"/>
<path d="M91.28 286.006C91.2768 286.035 91.8778 286.124 92.626 286.119C93.3741 286.115 93.9744 286.019 93.9706 285.99C93.9668 285.958 93.3664 286.004 92.6253 286.007C91.8842 286.013 91.2832 285.974 91.28 286.006Z" fill="#263238"/>
<path d="M89.4759 286.032C89.4535 286.055 89.5271 286.159 89.5905 286.296C89.6557 286.432 89.6897 286.554 89.721 286.552C89.7511 286.551 89.7665 286.406 89.6916 286.248C89.6174 286.09 89.4951 286.009 89.4759 286.032Z" fill="#263238"/>
<path d="M88.7828 285.196C88.761 285.218 88.8218 285.313 88.9185 285.408C89.0151 285.503 89.1111 285.562 89.1329 285.541C89.1546 285.519 89.0938 285.424 88.9966 285.329C88.8999 285.233 88.8046 285.174 88.7828 285.196Z" fill="#263238"/>
<path d="M87.8036 284.824C87.8106 284.855 87.9328 284.852 88.0685 284.897C88.2055 284.939 88.3028 285.013 88.3271 284.992C88.3514 284.975 88.272 284.845 88.1031 284.792C87.9348 284.737 87.794 284.796 87.8036 284.824Z" fill="#263238"/>
<path d="M87.1085 284.653C87.0976 284.681 87.1514 284.728 87.2282 284.756C87.305 284.785 87.376 284.784 87.3869 284.755C87.3978 284.727 87.344 284.68 87.2672 284.652C87.1898 284.623 87.1194 284.624 87.1085 284.653Z" fill="#263238"/>
<path d="M63.5451 283.052L66.6664 279.256L59.5924 273.364L54.9672 278.87L55.3825 279.263C57.2443 280.998 64.971 287.95 66.6056 288.641C68.4283 289.412 63.5451 283.052 63.5451 283.052Z" fill="#E8505B"/>
<g opacity="0.5">
<path d="M57.5776 280.95C57.9693 280.275 58.098 279.453 57.9316 278.69C57.7645 277.928 57.344 277.249 56.7066 276.799L55.0586 278.774L57.5776 280.95Z" fill="white"/>
</g>
<g opacity="0.4">
<path d="M65.8439 286.264C65.8439 286.264 67.4445 288.626 66.8922 288.754C66.3405 288.882 58.2676 282.15 54.9664 278.87L55.1092 278.721L64.4589 286.654C64.4589 286.654 65.4176 285.938 65.8439 286.264Z" fill="white"/>
</g>
<path d="M55.0023 278.624C54.9997 278.627 55.0381 278.666 55.113 278.739C55.2128 278.832 55.3216 278.935 55.4445 279.051C55.7811 279.357 56.1952 279.734 56.6835 280.178C57.7363 281.122 59.2083 282.407 60.8647 283.791C62.5216 285.174 64.0487 286.394 65.1655 287.261C65.6896 287.663 66.1338 288.003 66.4954 288.28C66.6311 288.38 66.7514 288.469 66.8615 288.55C66.9459 288.611 66.9914 288.642 66.9939 288.639C66.9965 288.635 66.9555 288.599 66.8755 288.532C66.7693 288.446 66.6535 288.352 66.5223 288.245C66.1671 287.961 65.7306 287.611 65.2147 287.199C64.1107 286.316 62.5927 285.087 60.937 283.705C59.2819 282.323 57.8029 281.047 56.7367 280.118C56.2394 279.684 55.8176 279.317 55.4746 279.018C55.3466 278.908 55.2327 278.811 55.129 278.722C55.0477 278.655 55.0048 278.621 55.0023 278.624Z" fill="#263238"/>
<path d="M64.3655 286.762C64.3885 286.786 64.665 286.497 65.1168 286.348C65.5667 286.192 65.9616 286.255 65.9655 286.221C65.9783 286.196 65.5642 286.076 65.0816 286.242C64.5971 286.403 64.3399 286.749 64.3655 286.762Z" fill="#263238"/>
<path d="M63.1623 283.962C63.1719 283.992 63.3728 283.953 63.6116 283.878C63.8503 283.801 64.0359 283.716 64.0269 283.687C64.0173 283.658 63.8164 283.696 63.5776 283.772C63.3383 283.848 63.1527 283.933 63.1623 283.962Z" fill="#263238"/>
<path d="M62.8416 283.183C62.8429 283.214 63.0163 283.232 63.2295 283.225C63.4426 283.217 63.6141 283.186 63.6135 283.155C63.6122 283.124 63.4387 283.106 63.2256 283.114C63.0125 283.121 62.841 283.152 62.8416 283.183Z" fill="#263238"/>
<path d="M63.0368 282.214C63.017 282.238 63.1642 282.397 63.3664 282.569C63.5687 282.741 63.7485 282.862 63.7683 282.838C63.7882 282.815 63.641 282.656 63.4387 282.484C63.2365 282.312 63.0567 282.191 63.0368 282.214Z" fill="#263238"/>
<path d="M63.305 281.64C63.2794 281.655 63.3914 281.886 63.6167 282.103C63.8407 282.322 64.0755 282.427 64.089 282.401C64.1056 282.373 63.9066 282.23 63.6941 282.023C63.4803 281.817 63.3319 281.623 63.305 281.64Z" fill="#263238"/>
<path d="M63.9162 283.547C63.9079 283.556 64.064 283.723 64.3732 283.923C64.5274 284.022 64.72 284.127 64.946 284.22C65.0612 284.262 65.1732 284.316 65.3178 284.337C65.3876 284.344 65.4727 284.344 65.5482 284.289C65.6237 284.237 65.6512 284.13 65.6308 284.05C65.3844 283.463 64.7456 283.345 64.3975 283.434C64.2132 283.475 64.0794 283.553 63.9962 283.614C63.913 283.677 63.8778 283.722 63.8823 283.727C63.8932 283.746 64.0621 283.574 64.4122 283.512C64.5844 283.482 64.7988 283.492 65.0106 283.583C65.2109 283.67 65.4496 283.847 65.5213 284.072C65.5488 284.185 65.4503 284.246 65.33 284.228C65.2148 284.214 65.0938 284.163 64.9837 284.124C64.7623 284.04 64.5703 283.945 64.4141 283.856C64.1012 283.677 63.9277 283.533 63.9162 283.547Z" fill="#263238"/>
<path d="M64.0154 283.667C64.018 283.677 64.1812 283.617 64.3309 283.395C64.4032 283.286 64.466 283.136 64.4839 282.96C64.4877 282.792 64.5005 282.567 64.2989 282.413C64.1825 282.338 64.0308 282.415 63.984 282.505C63.9258 282.592 63.9047 282.69 63.8919 282.773C63.865 282.943 63.8644 283.098 63.8772 283.227C63.9034 283.485 63.9719 283.632 63.984 283.627C64.0013 283.623 63.9616 283.471 63.9559 283.222C63.9533 283.099 63.9623 282.951 63.993 282.791C64.0109 282.643 64.112 282.435 64.2432 282.509C64.3661 282.593 64.3879 282.803 64.3815 282.952C64.3712 283.11 64.3226 283.249 64.2637 283.354C64.1434 283.569 64.0026 283.652 64.0154 283.667Z" fill="#263238"/>
<path d="M56.7597 276.81C56.7482 276.827 56.9779 276.959 57.2666 277.263C57.5539 277.562 57.8855 278.06 58.0147 278.684C58.1427 279.308 58.0333 279.896 57.8874 280.284C57.7427 280.677 57.5834 280.89 57.6007 280.901C57.6064 280.905 57.6512 280.856 57.7197 280.758C57.7888 280.66 57.8771 280.511 57.9603 280.313C58.1293 279.922 58.2567 279.313 58.1229 278.661C57.9885 278.01 57.6314 277.501 57.3216 277.208C57.1667 277.06 57.0266 276.956 56.9242 276.894C56.8237 276.831 56.7635 276.804 56.7597 276.81Z" fill="#263238"/>
<path d="M59.9463 274.478C59.9226 274.458 59.353 275.085 58.674 275.879C57.9943 276.673 57.4631 277.333 57.4861 277.353C57.5098 277.373 58.0794 276.746 58.7585 275.952C59.4381 275.158 59.97 274.498 59.9463 274.478Z" fill="#263238"/>
<path d="M59.0426 281.003C59.0208 281.023 59.4189 281.482 59.9892 281.966C60.5588 282.452 61.0765 282.77 61.0925 282.746C61.1111 282.719 60.626 282.362 60.0615 281.881C59.4964 281.402 59.0656 280.98 59.0426 281.003Z" fill="#263238"/>
<path d="M57.6583 279.845C57.6269 279.848 57.6148 279.974 57.5732 280.12C57.5341 280.266 57.4797 280.38 57.5053 280.399C57.5284 280.418 57.6346 280.318 57.6807 280.15C57.728 279.981 57.6877 279.841 57.6583 279.845Z" fill="#263238"/>
<path d="M57.6781 278.76C57.6474 278.762 57.6314 278.873 57.6429 279.009C57.6544 279.144 57.6883 279.252 57.7191 279.249C57.7498 279.247 57.7658 279.135 57.7543 279C57.7427 278.865 57.7088 278.757 57.6781 278.76Z" fill="#263238"/>
<path d="M57.1783 277.839C57.1629 277.867 57.2576 277.945 57.3312 278.068C57.4074 278.19 57.4336 278.309 57.465 278.308C57.4951 278.311 57.5194 278.161 57.426 278.01C57.3344 277.858 57.1898 277.812 57.1783 277.839Z" fill="#263238"/>
<path d="M56.7635 277.256C56.7366 277.27 56.7469 277.34 56.7866 277.412C56.8262 277.483 56.88 277.529 56.9075 277.515C56.9344 277.5 56.9242 277.43 56.8845 277.358C56.8442 277.287 56.7904 277.241 56.7635 277.256Z" fill="#263238"/>
<path d="M82.7021 180.216C82.7021 180.216 79.6378 193.184 80.5043 195.75C81.3709 198.315 86.9869 199.798 86.9869 199.798L86.7975 235.309L55.7415 273.697L67.2096 283.079C67.2096 283.079 100.829 244.62 103.793 237.656C106.756 230.692 101.904 179.641 101.904 179.641L82.7021 180.216Z" fill="#263238"/>
<path d="M98.5639 174.928L100.083 282.785L84.2842 282.865L76.3559 195.021C74.6797 193.422 72.3226 190.682 72.6471 184.572L73.0317 177.473L98.5639 174.928Z" fill="#263238"/>
<path d="M81.9059 241.314C81.9002 241.31 81.9315 241.256 81.9975 241.154C82.0787 241.034 82.1773 240.888 82.2976 240.712C82.5882 240.301 82.9805 239.745 83.472 239.05C84.5223 237.597 85.9904 235.564 87.7581 233.117L87.7312 233.198C87.3875 229.455 86.9703 224.915 86.5203 220.02C85.9469 213.605 85.4823 207.793 85.209 203.581C85.0695 201.475 84.978 199.77 84.9274 198.591C84.9082 198.027 84.8928 197.576 84.8807 197.233C84.8736 196.922 84.8755 196.758 84.8871 196.758C84.8986 196.757 84.9191 196.92 84.9479 197.229C84.9754 197.571 85.0119 198.021 85.0567 198.583C85.1507 199.796 85.2826 201.488 85.4439 203.564C85.7773 207.77 86.2791 213.577 86.8519 219.991C87.2826 224.903 87.7216 229.436 88.0051 233.198L88.0083 233.24L87.9783 233.279C86.1715 235.698 84.6707 237.707 83.5975 239.144C83.081 239.82 82.6682 240.361 82.3629 240.761C82.2298 240.928 82.121 241.066 82.0301 241.18C81.9539 241.272 81.9117 241.318 81.9059 241.314Z" fill="#455A64"/>
<path d="M86.7552 196.757C86.7411 196.846 84.8583 196.616 82.5722 196.134C80.2842 195.656 78.4691 195.108 78.4915 195.021C78.5152 194.93 80.3616 195.331 82.6407 195.808C84.9191 196.289 86.7706 196.664 86.7552 196.757Z" fill="#455A64"/>
<path d="M97.5763 233.581C97.5341 233.683 95.7619 232.647 93.3101 232.47C90.8601 232.258 88.9465 233.003 88.9216 232.895C88.9075 232.86 89.36 232.626 90.1529 232.413C90.9427 232.198 92.0825 232.04 93.3369 232.138C94.5907 232.239 95.6909 232.575 96.4371 232.911C97.1853 233.247 97.5955 233.549 97.5763 233.581Z" fill="#455A64"/>
<path d="M103.149 238.579C103.222 238.635 98.7782 244.6 93.2243 251.9C87.6685 259.203 83.1066 265.077 83.0336 265.021C82.9606 264.965 87.4035 259.002 92.9594 251.699C98.5126 244.398 103.075 238.524 103.149 238.579Z" fill="#455A64"/>
<path d="M101.009 182.941C101.037 182.95 100.82 183.502 100.119 184.114C99.4406 184.719 98.1926 185.332 96.7507 185.186C95.3094 185.028 94.2176 184.168 93.68 183.435C93.1219 182.69 93.0246 182.105 93.0554 182.102C93.1117 182.077 93.2877 182.619 93.863 183.286C94.4198 183.947 95.4605 184.71 96.7859 184.855C98.1113 184.99 99.289 184.46 99.9712 183.931C100.673 183.398 100.959 182.905 101.009 182.941Z" fill="#455A64"/>
<path d="M79.4221 127.446C76.8499 125.003 75.28 121.535 75.1418 117.99C75.0042 114.446 76.2995 110.866 78.6746 108.231" fill="#263238"/>
<path d="M70.5491 137.507C70.5491 137.507 67.1168 141.384 66.4058 156.214C66.4058 156.214 76.1805 158.068 76.359 157.535C76.5376 157.002 70.5491 137.507 70.5491 137.507Z" fill="#00BDCD"/>
<g opacity="0.3">
<path d="M70.5491 137.507C70.5491 137.507 67.1168 141.384 66.4058 156.214C66.4058 156.214 76.1805 158.068 76.359 157.535C76.5376 157.002 70.5491 137.507 70.5491 137.507Z" fill="black"/>
</g>
<path d="M72.1325 180.697H102.141L101.656 176.009C101.656 176.009 98.2272 158.175 98.2522 157.94L98.7923 156.804C100.209 153.828 100.257 150.382 98.9242 147.368L113.618 142.343L110.021 130.219C103.353 131.345 93.2743 132.6 93.2743 132.6L91.7741 132.726C91.7741 132.726 81.3703 133.269 81.1482 133.295C76.7955 133.821 71.7319 134.155 69.881 138.813C68.8915 141.304 69.8317 145.042 71.4471 148.897L75.2941 160.735C76.8301 167.242 74.3789 166.933 73.033 173.482C72.8295 174.472 72.1127 179.788 72.1325 180.697Z" fill="#00BDCD"/>
<g opacity="0.3">
<path d="M72.1325 180.697H102.141L101.656 176.009C101.656 176.009 98.2272 158.175 98.2522 157.94L98.7923 156.804C100.209 153.828 100.257 150.382 98.9242 147.368L113.618 142.343L110.021 130.219C103.353 131.345 93.2743 132.6 93.2743 132.6L91.7741 132.726C91.7741 132.726 81.3703 133.269 81.1482 133.295C76.7955 133.821 71.7319 134.155 69.881 138.813C68.8915 141.304 69.8317 145.042 71.4471 148.897L75.2941 160.735C76.8301 167.242 74.3789 166.933 73.033 173.482C72.8295 174.472 72.1127 179.788 72.1325 180.697Z" fill="black"/>
</g>
<path d="M113.48 142.539C113.487 142.56 113.255 142.657 112.828 142.813C112.402 142.968 111.782 143.183 111.013 143.442C109.477 143.961 107.343 144.649 104.988 145.401C102.632 146.155 100.526 146.903 99.0311 147.521C98.281 147.824 97.6845 148.094 97.2679 148.272C96.8551 148.457 96.6215 148.551 96.6106 148.531C96.6003 148.51 96.8135 148.378 97.2109 148.156C97.6115 147.942 98.1959 147.638 98.9383 147.305C100.418 146.629 102.525 145.84 104.886 145.085C107.244 144.331 109.387 143.68 110.942 143.218C111.72 142.988 112.351 142.807 112.789 142.689C113.228 142.571 113.473 142.517 113.48 142.539Z" fill="#263238"/>
<path d="M111.736 136.084C111.736 136.176 102.864 136.25 91.9219 136.25C80.976 136.25 72.1056 136.175 72.1056 136.084C72.1056 135.992 80.976 135.917 91.9219 135.917C102.864 135.917 111.736 135.991 111.736 136.084Z" fill="#FAFAFA"/>
<path d="M112.651 141.977C112.651 142.07 102.778 142.144 90.601 142.144C78.4205 142.144 68.5491 142.069 68.5491 141.977C68.5491 141.886 78.4205 141.811 90.601 141.811C102.778 141.81 112.651 141.885 112.651 141.977Z" fill="#FAFAFA"/>
<path d="M71.0048 148.684C71.0048 148.776 70.1817 148.85 69.1673 148.85C68.1523 148.85 67.3299 148.775 67.3299 148.684C67.3299 148.592 68.1523 148.518 69.1673 148.518C70.1824 148.518 71.0048 148.592 71.0048 148.684Z" fill="#FAFAFA"/>
<path d="M99.8471 148.888C99.8471 148.98 93.3901 149.054 85.4266 149.054C77.4605 149.054 71.0048 148.979 71.0048 148.888C71.0048 148.796 77.4605 148.721 85.4266 148.721C93.3901 148.721 99.8471 148.795 99.8471 148.888Z" fill="#FAFAFA"/>
<path d="M99.2115 155.797C99.2115 155.889 93.4163 155.963 86.2688 155.963C79.1194 155.963 73.3254 155.889 73.3254 155.797C73.3254 155.705 79.1194 155.631 86.2688 155.631C93.4163 155.631 99.2115 155.705 99.2115 155.797Z" fill="#FAFAFA"/>
<path d="M99.024 162.199C99.024 162.291 93.7709 162.365 87.2934 162.365C80.8128 162.365 75.5616 162.29 75.5616 162.199C75.5616 162.107 80.8134 162.032 87.2934 162.032C93.7709 162.032 99.024 162.107 99.024 162.199Z" fill="#FAFAFA"/>
<path d="M100.051 167.382C100.051 167.474 94.4314 167.548 87.5014 167.548C80.569 167.548 74.951 167.473 74.951 167.382C74.951 167.29 80.569 167.215 87.5014 167.215C94.4314 167.215 100.051 167.29 100.051 167.382Z" fill="#FAFAFA"/>
<path d="M101.676 173.986C101.676 174.079 95.2839 174.153 87.3997 174.153C79.513 174.153 73.1219 174.078 73.1219 173.986C73.1219 173.894 79.513 173.82 87.3997 173.82C95.2839 173.82 101.676 173.894 101.676 173.986Z" fill="#FAFAFA"/>
<path d="M75.1136 160.181C75.0919 160.188 74.9984 159.978 74.848 159.591C74.672 159.134 74.4621 158.589 74.2176 157.953C73.6896 156.569 72.9459 154.661 72.1728 152.534C71.3959 150.407 70.7584 148.456 70.3552 147.026C70.1543 146.311 70.0039 145.729 69.9175 145.322C69.8291 144.916 69.7907 144.689 69.8131 144.683C69.8624 144.671 70.1203 145.551 70.5805 146.957C71.04 148.365 71.7101 150.296 72.4858 152.42C73.2576 154.545 73.9667 156.467 74.4391 157.874C74.6765 158.577 74.857 159.15 74.9709 159.549C75.0835 159.95 75.1354 160.174 75.1136 160.181Z" fill="#263238"/>
</svg>
